<?xml version="1.0" standalone="no"?>
<!DOCTYPE svg PUBLIC "-//W3C//DTD SVG 20010904//EN"
 "http://www.w3.org/TR/2001/REC-SVG-20010904/DTD/svg10.dtd">
<svg version="1.0" xmlns="http://www.w3.org/2000/svg"
 width="301.000000pt" height="301.000000pt" viewBox="0 0 301.000000 301.000000"
 preserveAspectRatio="xMidYMid meet">
<metadata>
Created by potrace 1.11, written by Peter Selinger 2001-2013
</metadata>
<g transform="translate(0.000000,301.000000) scale(0.100000,-0.100000)"
fill="#000000" stroke="none">
<path d="M1387 2934 c-1 -1 -26 -5 -54 -8 -423 -47 -825 -306 -1050 -676 -415
-685 -181 -1584 517 -1979 112 -64 273 -127 369 -146 13 -2 30 -6 39 -9 93
-27 348 -39 459 -21 134 21 165 27 223 44 320 92 612 303 792 572 101 151 200
388 222 534 3 22 10 64 15 94 9 59 7 298 -4 371 -53 352 -236 678 -505 900
-207 171 -441 272 -730 316 -40 6 -288 13 -293 8z m277 -58 c234 -30 448 -113
646 -254 36 -25 110 -91 166 -146 200 -201 316 -420 380 -721 18 -84 24 -299
11 -410 -10 -87 -51 -250 -86 -337 -70 -178 -171 -330 -305 -463 -92 -91 -122
-116 -209 -174 -269 -181 -601 -262 -917 -226 -471 54 -886 351 -1090 780 -37
79 -86 214 -95 264 -3 14 -7 36 -9 48 -3 11 -8 43 -12 70 -3 26 -8 57 -10 68
-2 11 -4 70 -5 131 -2 583 370 1107 921 1302 98 34 216 61 310 69 36 3 66 6
67 7 5 4 188 -2 237 -8z"/>
</g>
</svg>
