<?xml version="1.0" encoding="utf-8"?>
<!-- Generator: Adobe Illustrator 18.0.0, SVG Export Plug-In . SVG Version: 6.00 Build 0)  -->
<!DOCTYPE svg PUBLIC "-//W3C//DTD SVG 1.1//EN" "http://www.w3.org/Graphics/SVG/1.1/DTD/svg11.dtd">
<svg version="1.1" xmlns="http://www.w3.org/2000/svg" xmlns:xlink="http://www.w3.org/1999/xlink" x="0px" y="0px"
	 viewBox="0 0 130 550" enable-background="new 0 0 130 550" xml:space="preserve">
<g id="backgrounds">
</g>
<g id="Layer_1">
	<rect x="4" y="425.3" width="2.4" height="70.9"/>
	<g>
		<path d="M47.8,48.9C47.3,65,47,70.1,46.3,75.5c-1.5,10.3-4.3,17.1-10.8,26.2l-0.8-0.4c4.4-11.5,5.9-22.5,5.9-45.6
			c0-3.5-0.1-6.6-0.1-7.7c-0.2-3.6-0.2-3.6-0.3-4.7c3.9,1.7,5.1,2.3,8.6,4.2h15.2V45c0-1.5-0.1-2.5-0.3-4.3
			c8.5,0.5,10.1,0.8,10.1,1.8c0,0.6-0.5,0.9-2.4,1.5v3.5h13.7c2.1-2.2,2.7-2.9,4.8-4.9c3.3,2.2,4.3,2.9,7.5,5.3
			c0.3,0.3,0.5,0.5,0.5,0.6c-0.1,0.4-0.2,0.5-0.9,0.5H47.8z M63.5,53.4c1.4-1.5,1.9-2,3.3-3.3c0.7,0.5,2.3,1.5,4.6,3.1
			c0.5,0.3,0.8,0.7,0.8,0.9c0,0.5-0.6,1.1-1.9,1.7c0.1,3.1,0.1,3.6,0.1,8.4c0,0.8,0,2.7,0,4.4c0.6,0.3,1.1,0.5,1.5,0.7
			c1.1,0.5,1.8,0.9,1.9,0.9c0.7,0.3,1.1,0.6,1.1,0.9c0,0.5-0.7,0.9-1.5,0.9c-0.1,0-0.2,0-0.4,0C72.8,72,72.7,72,72.5,72
			c2.1,1.3,4.1,2.1,6.8,2.8c4.9,1.3,11.3,2.1,16.1,2.1c0.9,0,1.9,0,3.3,0v0.7c-2.3,1.4-3.1,2.6-3.7,5.8c-0.2,0.7-0.4,1-0.9,1
			c-1.3,0-5.9-1.4-9.2-2.7c-5.9-2.5-9.7-5-13.5-9.1c-8.2,5.8-15.9,9.1-26.3,11.2l-0.2-0.7c8.5-4.2,14.4-7.9,19.7-12.7
			c-0.1-0.2-0.2-0.3-0.2-0.6v-4.2c-3.4,2.3-9,4.3-16.1,6.1L48,70.9c7.1-3.7,10.9-6.3,16.3-11.1v-3.2c-4.1,3-8.5,5.1-16.2,7.5
			l-0.2-0.7c5.1-2.9,7.6-4.9,10.9-8.5H52c-1.2,0-1.9,0.1-3.1,0.3L48.6,53c1.4,0.3,2.3,0.4,3.4,0.4H63.5z M45.7,101.8
			c11.1-1.9,17.9-3.7,27.6-7.4c5.9-2.2,8.9-3.8,12.3-6.2c5.4,3.5,7,4.6,7,5.2c0,0.5-0.6,0.8-1.3,0.8c-0.7,0-1.4-0.1-2.3-0.3
			c-8.7,3.9-13.3,5.4-21.5,6.9c-7.2,1.3-12.9,1.8-21.6,1.9L45.7,101.8z M47.3,94.3c10.1-2.7,12-3.3,19-6.1c6.3-2.5,9.2-4.1,11.6-6.1
			c5.3,3.3,6.5,4.2,6.5,4.7c0,0.4-0.5,0.7-1.2,0.7c-0.5,0-1.1-0.1-1.8-0.2c-5.7,2.6-10.5,4.2-17,5.6c-6.2,1.4-10.4,1.9-16.7,2.2
			L47.3,94.3z M47.7,88.1c7.2-2.4,12.7-4.7,17.3-7.4c2.2-1.3,3.1-1.9,5.6-4.1c5.3,3.5,6.2,4.3,6.2,4.7c0,0.4-0.4,0.7-0.9,0.7
			c-0.2,0-1.1-0.1-2-0.3c-4.5,2.3-9.2,4-16,5.5c-3.1,0.7-4.8,0.9-9.9,1.5L47.7,88.1z M73,69.1c5.1-2.9,10.5-6.8,13.8-9.9v-2.8
			c-4.4,2.9-10.1,5.4-15.4,6.9l-0.3-0.7c4.1-2.6,6.5-4.5,9.6-7.7h-4.4c-1.2,0-1.8,0.1-3.1,0.3L72.9,53c1.5,0.3,2.3,0.4,3.4,0.4h10.3
			c1.3-1.1,2.4-2.2,3.4-3.1c2.2,1.5,2.9,2.1,4.9,3.7c0.6,0.5,0.8,0.8,0.8,1.1c0,0.6-0.7,1.1-2.5,1.7l0.1,5.1c0,1.9,0,2.1,0.2,8.1
			c0,0.5-0.1,0.9-0.3,1.1c-0.3,0.3-2.5,0.6-4.4,0.6c-1.5,0-1.9-0.3-1.9-1.2v-5.4c-3.4,1.9-7.6,3.4-13.5,4.7L73,69.1z"/>
		<path d="M56.5,340.9h1.5c1.3-1.5,1.7-2,3.1-3.4c1.9,1.5,2.5,1.9,4.1,3.4c0.5,0.5,0.6,0.7,0.6,1c0,0.5-0.5,0.9-1.9,1.5
			c0,26.3,0.1,31.4,0.5,40.1c0,1.3-1,1.7-3.9,1.7c-1.7,0-2.1-0.2-2.1-1.2v-3.7H43.9v4.3c0,0.7-0.2,1-0.8,1.2
			c-0.3,0.1-2.5,0.3-3.6,0.3c-1.3,0-1.7-0.3-1.7-1.3c0.3-9.1,0.3-14.1,0.3-26.4c0-10.1-0.1-14.1-0.4-21.2c2.9,1.5,3.8,1.9,6.6,3.7
			h0.9v-10.5h-4.7c-2.1,0-2.9,0.1-4.4,0.4l-0.3-2.3c1.5,0.3,2.6,0.5,4.7,0.5h15.5c1.7-2,2.2-2.7,4-4.7c2.8,2,3.7,2.7,6.6,5.1
			c0.2,0.3,0.3,0.4,0.3,0.5c0,0.2-0.3,0.4-0.7,0.4h-9.9V340.9z M58.4,362.4c-0.8,0.1-1.8,0.1-2.5,0.1c-3,0-3.7-0.5-3.8-2.4
			c0-2.7,0-2.7,0-5.8v-12h-2.3c-0.1,12.3-1.1,16.7-5.3,22.9l-0.5-0.3v4.5h14.5V362.4z M43.9,342.3v21.9c1.6-3.9,2.1-8.3,2.1-18.7
			v-3.2H43.9z M58.4,370.8H43.9v8.1h14.5V370.8z M49.8,330.5v10.5h2.3v-10.5H49.8z M55.6,342.3v15.8c0,0.5,0.2,0.7,1.3,0.7
			c0.4,0,0.9-0.1,1.5-0.1v-16.3H55.6z M88.3,332.7c1.8-2.1,2.3-2.8,4.2-4.9c2.9,2.2,3.8,2.9,6.5,5.3c0.3,0.3,0.4,0.5,0.4,0.6
			c0,0.3-0.3,0.5-0.7,0.5H68.9c-2.3,0-3.2,0.1-4.8,0.3l-0.4-2.3c1.7,0.4,3,0.5,5.2,0.5h7.8v-3.7c0-1.5-0.1-2.3-0.3-4.3
			c2.1,0.2,3.6,0.3,4.6,0.4c4.3,0.4,5.5,0.7,5.5,1.4c0,0.5-0.6,0.9-2.6,1.6v4.5H88.3z M88.8,367.7c1.9-2.2,2.5-2.9,4.3-5
			c2.7,2.1,3.5,2.9,6,5.3c0.3,0.3,0.4,0.5,0.4,0.7c0,0.3-0.3,0.4-0.7,0.4H84.2v4.3c0,0.5,0,0.9,0.1,6.6c-0.1,2.6-0.9,3.9-2.8,4.7
			c-1.4,0.6-4.1,1.2-5.4,1.2c-0.9,0-1-0.1-1.1-1.3c-0.3-3-2.1-4.1-8.5-5.5l0.1-0.9c7.1,0.5,7.1,0.5,10.1,0.6
			c0.6-0.1,0.7-0.3,0.7-1.2v-8.6h-7.8c-1.9,0-2.8,0.1-4.3,0.3l-0.3-2.2c1.7,0.4,2.9,0.5,4.8,0.5h7.7v-0.7c0-1.4-0.1-2.5-0.5-5
			c3,0.3,3.7,0.5,5.9,0.8c0.4-0.4,0.7-0.7,0.9-0.9c2.1-2.3,2.4-2.7,3.6-4.3H70.9c-1.7,0-2.6,0.1-4,0.3l-0.4-2.2
			c1.7,0.4,2.6,0.5,4.6,0.5h16.1c1.4-1.5,1.5-1.7,2.8-2.9c-0.5,0-0.9,0-1.2,0c-1.3,0-1.6-0.2-1.7-1v-1.6H74.2v1.4
			c0,0.5-0.1,0.8-0.4,1c-0.5,0.3-2.1,0.5-4,0.5c-1.6,0-2-0.3-2-1.3c0.1-3.4,0.1-4.9,0.1-8.6c0-5.1-0.1-6.1-0.2-8
			c3.1,1.2,4.1,1.7,7.1,3.3h11.9c1.3-1.4,1.7-1.8,3.2-3.1c2.3,1.4,3,1.9,5.1,3.3c0.7,0.5,0.9,0.7,0.9,1.1c0,0.5-0.4,0.8-2.2,1.7
			c-0.1,2.2-0.1,3.5-0.1,3.9c0,1,0,1,0.1,5.7c-0.1,1.2-0.5,1.4-3.5,1.5c2.9,2,3.5,2.4,6.1,4.4c0.6,0.5,0.9,0.8,0.9,1.1
			c0,0.6-0.7,0.9-2.1,0.9h-0.9c-0.2,0-0.4,0-0.5,0c-3.3,1.4-4.3,1.8-8.8,3.3c0.9,0.2,1.3,0.5,1.3,0.9c0,0.5-0.5,0.7-2,1.2v2.6H88.8z
			 M74.2,349.3h12.9v-8.9H74.2V349.3z"/>
		<path d="M52,453.7c1.9,0.7,3.3,1.3,5.1,2.2c3.3,1.7,4.8,3.5,4.8,5.9c0,2.5-1.9,5.1-3.9,5.1c-0.9,0-1.3-0.7-1.7-2.7
			c-0.8-4.1-1.9-6.5-4.3-9.1V469c0,6.7,0,11.9,0.1,15.9c-0.1,1.5-1.1,1.9-4.1,1.9c-2.9,0-3.3-0.2-3.3-1.3c0,0,0-0.1,0-0.1
			c0.2-7.3,0.3-12.6,0.3-15.9v-9c-2.3,2.3-4.4,3.8-9.7,7.1l-0.5-0.7c4.2-4.2,6.9-7.7,10.3-13.1c3-4.9,4.9-8.6,6.8-13.7H40.8
			c-2,0-2.7,0.1-4.1,0.3l-0.5-2.3c1.7,0.5,2.8,0.6,4.6,0.6H45v-7.9c0-2.1-0.1-3.1-0.4-5.4c8.5,0.7,10,1.1,10,1.9
			c0,0.7-0.8,1.1-2.6,1.7v9.7h0.7c1.5-1.5,1.9-2.1,3.4-3.6c2.3,1.8,3,2.3,5.2,4.1c0.5,0.5,0.8,0.8,0.8,1.1c0,0.6-0.6,0.9-2.7,1.7
			c-2.7,4.9-4.4,7.5-7.4,11.2V453.7z M91.2,483c1.4-2.3,1.9-3,3.5-5.3c1.9,2.5,2.5,3.3,4.3,5.7c0.1,0.2,0.3,0.4,0.3,0.5
			c0,0.3-0.3,0.4-0.7,0.4H60.3c-2.5,0-3.5,0.1-5.2,0.3l-0.5-2.3c1.9,0.4,3.3,0.5,5.6,0.5h3.4v-47c0-2.7-0.1-3.7-0.3-10.1
			c3.7,1.6,4.7,2.1,8.2,4.1h11.9c1.5-1.9,2-2.4,3.6-4.2c2.5,1.8,3.3,2.3,5.5,4.2c0.6,0.5,0.8,0.8,0.8,1.1c0,0.5-0.6,1.1-2.2,1.9v50
			H91.2z M83.7,431.4H70.9v14.9h12.7V431.4z M83.7,447.6H70.9v15.8h12.7V447.6z M83.7,464.9H70.9V483h12.7V464.9z"/>
	</g>
</g>
</svg>
